<?xml version="1.0" encoding="UTF-8" standalone="no"?>
<!DOCTYPE svg PUBLIC "-//W3C//DTD SVG 1.1//EN" "http://www.w3.org/Graphics/SVG/1.1/DTD/svg11.dtd">
<svg width="100%" height="100%" viewBox="0 0 500 500" version="1.1" xmlns="http://www.w3.org/2000/svg" xmlns:xlink="http://www.w3.org/1999/xlink" xml:space="preserve" xmlns:serif="http://www.serif.com/" style="fill-rule:evenodd;clip-rule:evenodd;stroke-linejoin:round;stroke-miterlimit:2;">
    <g transform="matrix(3.32005,0,0,3.32005,-1147.74,-711.155)">
        <g id="drop-down-list-svgrepo-com.svg" transform="matrix(0.375429,0,0,0.375429,421,289.5)">
            <g transform="matrix(1,0,0,1,-200.571,-200.571)">
                <g>
                    <path d="M101.847,160.827L101.847,225.25L401.141,225.25L401.141,160.827L101.847,160.827ZM382.435,206.544L120.553,206.544L120.553,179.532L382.435,179.532L382.435,206.544ZM101.847,300.074L401.141,300.074L401.141,235.65L101.847,235.65L101.847,300.074ZM120.553,254.356L382.435,254.356L382.435,281.368L120.553,281.368L120.553,254.356ZM101.847,374.379L401.141,374.379L401.141,309.956L101.847,309.956L101.847,374.379ZM120.553,328.662L382.435,328.662L382.435,355.674L120.553,355.674L120.553,328.662ZM0,138.997L380.353,138.997L380.353,26.762L0,26.762L0,138.997ZM299.294,45.467L361.647,45.467L361.647,120.291L299.294,120.291L299.294,45.467ZM18.706,120.291L18.706,45.467L280.589,45.467L280.589,120.291L18.706,120.291ZM311.235,73.843L352.197,73.843L331.713,99.883L311.235,73.843Z" style="fill-rule:nonzero;"/>
                </g>
            </g>
            <g>
            </g>
        </g>
    </g>
</svg>
